<svg width="336" height="53" viewBox="0 0 336 53" fill="none" xmlns="http://www.w3.org/2000/svg">
<path d="M111.03 4.01074V15.9854H64.6525C64.5829 15.9854 64.5079 15.9962 64.4436 16.0069C63.0666 16.1623 61.9629 17.2177 61.7379 18.5733C61.7057 18.7447 61.6897 18.9162 61.6897 19.0983C61.6897 19.1412 61.6897 19.1841 61.6897 19.2269C61.6897 19.3662 61.7057 19.4948 61.7325 19.6234C61.829 20.1806 62.0701 20.6896 62.429 21.1075C62.6809 21.4183 63.0023 21.6701 63.3613 21.863C63.4095 21.8898 63.4631 21.9165 63.5167 21.938C63.7953 22.0719 64.0953 22.1523 64.4168 22.1951H64.4436C64.5615 22.2112 64.674 22.2166 64.7972 22.2166H79.7723C80.2652 22.2166 80.742 22.2487 81.2189 22.313C82.2101 22.4416 83.1691 22.6934 84.0585 23.0631C84.1389 23.0953 84.2193 23.1274 84.2943 23.1649C84.5622 23.2828 84.8301 23.406 85.0926 23.5453C85.1462 23.5721 85.1944 23.5989 85.248 23.6257C87.0107 24.5526 88.5644 25.8277 89.8235 27.3547C90.0378 27.6173 90.2468 27.8905 90.445 28.1691C91.6452 29.8354 92.5078 31.7588 92.9471 33.8377C93.0543 34.3359 93.1293 34.8342 93.1829 35.3486C93.2418 35.879 93.2686 36.4094 93.2686 36.9559C93.2686 37.6739 93.215 38.3811 93.1132 39.0669C93.0704 39.4044 93.0114 39.7366 92.9418 40.0634C92.9418 40.0956 92.9311 40.117 92.9257 40.1438C92.3953 42.587 91.2809 44.8105 89.7271 46.6589C87.5947 49.1932 84.6479 51.0095 81.2939 51.7167C80.8278 51.8131 80.3616 51.8935 79.8848 51.9364C79.8741 51.9364 79.8687 51.9364 79.858 51.9364V51.9471C79.3062 52.0114 78.7436 52.0435 78.181 52.0435L67.385 52.0328V40.0634L78.2292 40.0795C78.2774 40.0795 78.3257 40.0795 78.3739 40.0795C79.8526 40.0152 81.0582 38.9169 81.2993 37.4917C81.3314 37.3202 81.3475 37.1488 81.3475 36.9666C81.3475 36.7845 81.3314 36.613 81.2993 36.4416C81.1332 35.4664 80.517 34.6413 79.6705 34.202C79.4401 34.0734 79.1829 33.9877 78.915 33.9234C78.7007 33.8752 78.465 33.8484 78.2346 33.8484H66.8439C64.4222 33.8109 62.263 33.6769 60.2966 33.2001C58.5446 32.7768 56.948 32.075 55.4639 30.9284C55.4371 30.9069 55.4103 30.8909 55.3835 30.8694C52.7261 28.721 50.8133 25.6938 50.0847 22.2327C49.9668 21.6862 49.8864 21.1182 49.8328 20.5503C49.7846 20.0788 49.7632 19.602 49.7632 19.1198C49.7632 18.1393 49.8596 17.1695 50.0418 16.2426C50.0525 16.1623 50.0686 16.0819 50.0847 16.0069C50.1597 15.6425 50.2507 15.2889 50.3525 14.9353C50.7437 13.5691 51.3223 12.2778 52.067 11.1045C54.2048 7.70227 57.666 5.21625 61.7325 4.36436C62.1933 4.26792 62.6648 4.18755 63.1416 4.14469C63.1524 4.14469 63.1577 4.14469 63.1684 4.14469V4.13397C63.2381 4.12326 63.3077 4.1179 63.3774 4.11254L64.465 4.04289C64.5936 4.04289 64.7168 4.04289 64.8454 4.04289H111.035L111.03 4.01074Z" fill="#AB2173"/>
<path d="M129 4.01074V52.0167H117.025V36.8166C117.025 35.1664 115.68 33.8162 114.025 33.8162C112.369 33.8162 111.019 35.1611 111.019 36.8166V52.0167H99.0444V36.4898C99.0605 36.0933 99.0819 35.7075 99.1141 35.3271C99.1998 34.3359 99.3498 33.3769 99.6124 32.4607C99.6124 32.4607 99.6124 32.45 99.6124 32.4393C99.7838 31.8928 99.982 31.3624 100.207 30.8427C101.15 28.6995 102.586 26.8189 104.365 25.3402C104.622 25.1259 104.89 24.9116 105.163 24.7187C106.872 23.4703 108.865 22.5809 111.014 22.1469C111.984 21.9487 112.985 21.8469 114.014 21.8469C115.043 21.8469 116.045 21.954 117.02 22.1469V4.01074H128.995H129Z" fill="#AB2173"/>
<path d="M60.6397 39.8759C59.7342 39.8759 58.8555 39.7795 58.009 39.5866C56.0963 39.158 54.3603 38.2686 52.9191 37.047C52.5815 36.7577 52.2601 36.4523 51.96 36.1308C51.5475 35.6915 51.1671 35.2253 50.8295 34.7378C50.3902 34.0948 50.0098 33.4037 49.699 32.6804L43.4518 21.3057L42.9804 20.4485L36.8349 9.26138C36.0795 7.92193 35.1312 6.71642 33.9792 5.65022C32.8327 4.58401 31.3753 4.05359 29.618 4.05359C27.8606 4.05359 26.5212 4.55187 25.3907 5.54306C24.2602 6.53961 23.3011 7.77727 22.5082 9.26138L10.1209 32.3964L10.1102 32.4125L0.862607 50.2272L0.316111 51.2827L0.230386 51.4595L0 51.8881H40.355L33.6256 39.8491H22.7493C21.5813 39.8491 20.5686 39.8973 19.706 39.9884C19.99 39.5062 20.3061 38.9597 20.6436 38.3329C20.6704 38.2739 20.7026 38.2257 20.7347 38.1614C20.8205 38.0007 20.9115 37.8346 21.0026 37.6631C21.0508 37.5774 21.0937 37.481 21.1419 37.3899C21.2384 37.197 21.3455 37.0041 21.4473 36.8005C21.8599 36.0076 22.2617 35.2521 22.6475 34.5181L22.76 34.577L25.4871 29.1121L27.223 25.7849L29.8162 20.8075L32.5219 25.7849L38.7316 37.2024L40.2693 40.0206L40.4193 40.2992C40.5211 40.4921 40.6283 40.6796 40.7408 40.8671L40.7622 40.9046C41.3301 41.8797 41.9731 42.8066 42.675 43.6692C43.7304 44.9765 44.9252 46.1445 46.2272 47.1625C49.4472 49.6861 53.337 51.2934 57.4839 51.7488C58.2287 51.8988 59.0002 51.9738 59.7878 51.9738H61.6148V39.8652H60.6236L60.6397 39.8759Z" fill="#AB2173"/>
<path d="M40.7515 40.8724C40.639 40.6849 40.5318 40.4974 40.43 40.3045L40.28 40.0259L40.7515 40.8724Z" fill="white"/>
<path d="M111.03 52.006H99.0552V36.479C99.0712 36.0826 99.0927 35.6968 99.1248 35.3164C99.1998 34.427 99.3284 33.5698 99.5427 32.7339C99.5642 32.6375 99.591 32.5411 99.6177 32.45C99.6177 32.45 99.6177 32.4393 99.6177 32.4285C99.7892 31.882 99.9874 31.3516 100.212 30.8373C101.161 28.6888 102.597 26.8136 104.375 25.3348C104.633 25.1205 104.895 24.9062 105.174 24.7133C106.883 23.4649 108.871 22.5755 111.025 22.1415C111.994 21.9433 112.996 21.8415 114.02 21.8415C115.043 21.8415 116.05 21.9487 117.025 22.1415V4H129V52.006H117.025V36.8059C117.025 35.1557 115.68 33.8109 114.03 33.8109C112.38 33.8109 111.025 35.1557 111.025 36.8059V52.006H111.03Z" fill="#902474"/>
<path d="M93.2849 4H78.8992L78.3902 4.31075L67.3799 11.5545H61.6684L49.8116 17.6946C49.7687 18.1553 49.7473 18.6161 49.7473 19.0822C49.7473 19.5484 49.7687 20.0413 49.817 20.5128C49.8705 21.0861 49.9563 21.6486 50.0688 22.1951C50.7974 25.6563 52.7102 28.6834 55.3677 30.8319C55.3944 30.8533 55.4212 30.8694 55.4427 30.8908C56.5571 31.7481 57.7305 32.3535 58.9842 32.7822C59.4021 32.9322 59.8361 33.0554 60.2754 33.1572C62.2364 33.6394 64.3956 33.768 66.8227 33.8055H78.2134C78.4437 33.8055 78.6795 33.8323 78.8938 33.8805C79.1617 33.9448 79.4135 34.0305 79.6493 34.1591C80.5011 34.5985 81.1173 35.4182 81.278 36.3987C81.3048 36.5541 81.3209 36.7148 81.3209 36.8755C81.3209 36.8916 81.3209 36.9077 81.3209 36.9237C81.3209 37.1059 81.3048 37.2774 81.2727 37.4435C81.0369 38.8686 79.8261 39.967 78.3473 40.0313C78.2991 40.0313 78.2509 40.0313 78.208 40.0313H67.3638V40.4117V52.0006H78.1598C78.7224 52.0006 79.2796 51.9685 79.8368 51.9042V51.8935C79.8368 51.8935 79.8528 51.8988 79.8636 51.8988C80.3351 51.8506 80.8065 51.7702 81.2727 51.6738C84.6267 50.9666 87.5788 49.1503 89.7059 46.616C91.2596 44.7676 92.3794 42.5441 92.9045 40.1009C92.9098 40.0741 92.9152 40.0527 92.9205 40.0259C92.9902 39.6937 93.0491 39.3615 93.092 39.024C93.1884 38.3382 93.242 37.631 93.242 36.913C93.242 36.5219 93.2259 36.1361 93.1992 35.7557C93.1884 35.6057 93.1724 35.4557 93.1563 35.3057C93.1027 34.7913 93.0277 34.2931 92.9205 33.8001C92.4812 31.716 91.6132 29.7979 90.4185 28.1262C90.2149 27.8476 90.0113 27.5797 89.7916 27.3118C89.588 27.0707 89.3844 26.8296 89.1647 26.6046C88.0342 25.3884 86.7001 24.365 85.2214 23.5882C85.1678 23.5614 85.1196 23.5346 85.066 23.5131C84.8035 23.3738 84.5409 23.2506 84.2677 23.1327C84.1927 23.0952 84.1123 23.0631 84.0319 23.0363C83.1372 22.6666 82.1835 22.4094 81.1923 22.2862C80.7155 22.2219 80.2333 22.1898 79.7457 22.1898H64.7706C64.6474 22.1898 64.5295 22.1898 64.417 22.1683H64.3902C64.0687 22.1255 63.7687 22.0397 63.4847 21.9112C63.4312 21.8897 63.3776 21.8629 63.3347 21.8362C62.9757 21.6433 62.6543 21.3915 62.3971 21.0807C62.0381 20.6628 61.797 20.1592 61.7006 19.5966C61.6738 19.468 61.6631 19.3394 61.6577 19.2001C61.6524 19.1572 61.6524 19.1144 61.6524 19.0715C61.6524 18.8894 61.6684 18.7179 61.7006 18.5518C61.9256 17.1909 63.0293 16.1354 64.4063 15.9854H64.4116C64.4813 15.9747 64.5509 15.9693 64.6206 15.964H111.003V4H93.2581H93.2849Z" fill="#902474"/>
<path d="M111.03 52.0059H99.0552V36.479C99.0712 36.0825 99.0927 35.6968 99.1248 35.3164C99.1998 34.427 99.3284 33.5697 99.5427 32.7339C99.5642 32.6375 99.591 32.541 99.6177 32.4499C99.6177 32.4499 99.6177 32.4392 99.6177 32.4285C99.7892 31.882 99.9874 31.3516 100.212 30.8372C101.161 28.6888 102.597 26.8135 104.375 25.3348C104.633 25.1205 104.895 24.9061 105.174 24.7133C106.883 23.4649 108.871 22.5755 111.025 22.1415C111.994 21.9433 112.996 21.8415 114.02 21.8415C115.043 21.8415 116.05 21.9486 117.025 22.1415V17.6731H121.676L129 8.81128V52.0059H117.025V36.8058C117.025 35.1556 115.68 33.8108 114.03 33.8108C112.38 33.8108 111.025 35.1556 111.025 36.8058V52.0059H111.03Z" fill="#83246D"/>
<path d="M93.2635 36.9237C93.2635 37.6416 93.2099 38.3489 93.1134 39.0347C93.0706 39.3722 93.0116 39.7044 92.942 40.0312C92.9366 40.0634 92.9313 40.0848 92.9259 40.1062C92.4008 42.5547 91.2811 44.7782 89.7273 46.6213C87.5949 49.1556 84.6481 50.9719 81.2941 51.6791C80.828 51.7755 80.3565 51.8505 79.885 51.9041C79.8743 51.9041 79.8689 51.8988 79.8582 51.8988V51.9095C79.3064 51.9738 78.7438 52.0059 78.1812 52.0059H67.3852V40.0366H78.2294C78.2777 40.0366 78.3259 40.0366 78.3687 40.0366C79.8475 39.9723 81.0584 38.8739 81.2941 37.4487C81.3263 37.2773 81.3423 37.1058 81.3423 36.929C81.3423 36.913 81.3423 36.8969 81.3423 36.8808C81.3423 36.7201 81.3263 36.5593 81.2995 36.404C81.1387 35.4288 80.5172 34.6037 79.6707 34.1644C79.4403 34.0358 79.1831 33.9501 78.9152 33.8858C78.7009 33.8376 78.4652 33.8108 78.2348 33.8108H66.8441C64.417 33.7733 62.2578 33.6393 60.2968 33.1625C59.8575 33.0553 59.4235 32.9321 59.0056 32.7874L67.4067 28.1637H86.459L89.1969 26.6206C89.4165 26.851 89.6255 27.0867 89.8237 27.3278C90.0434 27.5904 90.247 27.8583 90.4506 28.1422C91.6454 29.8139 92.5134 31.732 92.9527 33.8161C93.0599 34.3091 93.1349 34.8127 93.1884 35.3217C93.2045 35.4717 93.2206 35.6164 93.2313 35.7717C93.2581 36.1522 93.2742 36.5379 93.2742 36.929L93.2635 36.9237Z" fill="#83246D"/>
<path d="M93.2635 36.9238C93.2635 37.6417 93.2099 38.3489 93.1135 39.0347C93.0706 39.3723 93.0117 39.7045 92.942 40.0313C92.9367 40.0634 92.9313 40.0849 92.9259 40.1063C92.4009 42.5548 91.2811 44.7783 89.7273 46.6214C87.5949 49.1556 84.6481 50.9719 81.2941 51.6792C80.828 51.7756 80.3565 51.8506 79.885 51.9042C79.8743 51.9042 79.869 51.8988 79.8582 51.8988V51.9096C79.3064 51.9739 78.7438 52.006 78.1812 52.006H67.3853V41.344L67.6853 41.2475L70.2785 40.4171L71.4733 40.0367H78.2348C78.283 40.0367 78.3313 40.0367 78.3741 40.0367C79.8529 39.9724 81.0637 38.874 81.2995 37.4488C81.3316 37.2774 81.3477 37.1059 81.3477 36.9291C81.3477 36.913 81.3477 36.897 81.3477 36.8809L84.8196 35.7665H93.2313C93.2581 36.1469 93.2742 36.5326 93.2742 36.9238H93.2635Z" fill="#72184F"/>
<path d="M129 24.0597V52.006H117.025V36.8059C117.025 35.1557 115.68 33.8109 114.03 33.8109C112.38 33.8109 111.025 35.1557 111.025 36.8059V52.006H99.0498V36.4791C99.0659 36.0826 99.0873 35.6968 99.1195 35.3164C99.1945 34.427 99.3231 33.5698 99.5374 32.734L109.578 25.8813H124.355L128.995 24.0543L129 24.0597Z" fill="#72184F"/>
<path d="M40.3766 51.9149H0.0429688L0.273355 51.4863L0.35908 51.3095L0.905576 50.254L24.9514 25.8116H27.2714L25.5354 29.1388L22.8083 34.6038L22.6958 34.5449C22.31 35.2735 21.9082 36.029 21.4956 36.8273C21.3885 37.0309 21.2867 37.2238 21.1902 37.4167C21.142 37.5077 21.0938 37.5988 21.0509 37.6899C20.9599 37.8614 20.8688 38.0275 20.7831 38.1882C20.7509 38.2471 20.7188 38.3007 20.692 38.3596C20.3544 38.9865 20.0383 39.533 19.7544 40.0152C20.617 39.9241 21.6296 39.8759 22.7976 39.8759H33.6525L37.8905 47.4572L40.3819 51.9149H40.3766Z" fill="#902474"/>
<path d="M61.6737 39.8973V52.006H59.8467C59.0537 52.006 58.2876 51.931 57.5428 51.781C53.3959 51.3255 49.5061 49.7182 46.2861 47.1947C44.9788 46.1767 43.7894 45.0087 42.7339 43.7014C42.032 42.8388 41.3891 41.9119 40.8211 40.9367C40.7033 40.7385 40.5907 40.5403 40.4782 40.3313L38.7905 37.2345L32.5808 25.817H35.1472L43.4947 21.3325L49.7419 32.7072C50.0473 33.4305 50.4277 34.1216 50.8724 34.7645C51.2099 35.2575 51.5903 35.7236 52.0029 36.1576C52.3083 36.4844 52.6244 36.7844 52.9619 37.0738C54.4032 38.3007 56.1391 39.1901 58.0518 39.6134C58.8984 39.8063 59.7824 39.9027 60.6825 39.9027H61.6737V39.8973Z" fill="#902474"/>
<path d="M40.3979 51.9149H2.07886L25.8461 47.6394L31.445 43.2728L35.0776 42.3673L40.3979 51.9149Z" fill="#83246D"/>
<path d="M61.6736 39.8973V52.0059H59.8466C59.0537 52.0059 58.2875 51.9309 57.5428 51.7809C53.3958 51.3255 49.5061 49.7182 46.286 47.1946C44.9787 46.1766 43.7893 45.0086 42.7338 43.7013C42.0319 42.8387 41.389 41.9118 40.821 40.9367L50.7062 38.4668L52.9618 37.0737C54.4031 38.3007 56.139 39.1901 58.0518 39.6133C58.8983 39.8062 59.7823 39.9027 60.6824 39.9027H61.6736V39.8973Z" fill="#83246D"/>
<path d="M40.3764 51.9149H3.61646C14.7714 50.2379 32.0075 47.6393 32.0075 47.6393L37.885 47.4572L40.3764 51.9149Z" fill="#72184F"/>
<path d="M58.309 42.8227L61.6684 41.9708V52.006H59.8414C59.0484 52.006 58.2823 51.931 57.5375 51.781C53.3906 51.3256 49.5008 49.7182 46.2808 47.1947L53.3852 46.9697L58.309 42.8281V42.8227Z" fill="#72184F"/>
<path d="M137.168 23L144.296 6.08H148.784L155.936 23H150.944L149.744 19.976H143.24L142.04 23H137.168ZM144.608 16.352H148.376L146.504 11.6L144.608 16.352ZM163.932 23.288C160.932 23.288 158.172 22.352 156.06 20.504L158.652 17.408C160.356 18.752 162.18 19.424 164.1 19.424C165.372 19.424 166.044 19.016 166.044 18.272V18.224C166.044 17.504 165.492 17.168 163.188 16.592C159.636 15.776 156.852 14.792 156.852 11.336V11.288C156.852 8.144 159.324 5.912 163.356 5.912C166.236 5.912 168.444 6.68 170.268 8.144L167.94 11.432C166.404 10.304 164.748 9.776 163.236 9.776C162.108 9.776 161.556 10.208 161.556 10.856V10.904C161.556 11.648 162.132 12.032 164.484 12.536C168.324 13.376 170.724 14.624 170.724 17.768V17.816C170.724 21.248 168.012 23.288 163.932 23.288ZM172.988 23V6.2H177.644V12.488H183.62V6.2H188.276V23H183.62V16.616H177.644V23H172.988ZM199.358 23.336C194.558 23.336 190.694 19.664 190.694 14.648V14.6C190.694 9.704 194.438 5.864 199.526 5.864C202.934 5.864 205.19 7.304 206.654 9.344L203.15 12.056C202.19 10.88 201.11 10.088 199.478 10.088C197.126 10.088 195.47 12.104 195.47 14.552V14.6C195.47 17.12 197.126 19.088 199.478 19.088C201.23 19.088 202.238 18.272 203.27 17.048L206.774 19.544C205.166 21.728 203.054 23.336 199.358 23.336ZM216.804 23.336C211.62 23.336 207.78 19.448 207.78 14.648V14.6C207.78 9.776 211.668 5.864 216.852 5.864C222.036 5.864 225.876 9.752 225.876 14.552V14.6C225.876 19.424 221.988 23.336 216.804 23.336ZM216.852 19.136C219.396 19.136 221.1 17.072 221.1 14.648V14.6C221.1 12.152 219.372 10.064 216.804 10.064C214.236 10.064 212.532 12.128 212.532 14.552V14.6C212.532 17 214.284 19.136 216.852 19.136ZM228.277 23V6.2H236.221C238.813 6.2 240.565 6.872 241.693 8C242.677 8.984 243.181 10.304 243.181 11.912V11.96C243.181 14.552 241.837 16.256 239.725 17.144L243.733 23H238.381L234.997 17.912H232.933V23H228.277ZM232.933 14.264H236.029C237.589 14.264 238.525 13.496 238.525 12.272V12.224C238.525 10.88 237.541 10.208 236.005 10.208H232.933V14.264ZM245.527 23V6.2H252.751C256.975 6.2 259.711 8.36 259.711 12.08V12.128C259.711 16.112 256.663 18.2 252.511 18.2H250.183V23H245.527ZM250.183 14.552H252.415C254.047 14.552 255.079 13.688 255.079 12.344V12.296C255.079 10.856 254.047 10.112 252.391 10.112H250.183V14.552ZM142.592 52V39.28H137.576V35.2H152.288V39.28H147.248V52H142.592ZM154.332 52V35.2H167.844V39.136H158.94V41.704H167.004V45.376H158.94V48.04H167.964V52H154.332ZM178.358 52.336C173.558 52.336 169.694 48.664 169.694 43.648V43.6C169.694 38.704 173.438 34.864 178.526 34.864C181.934 34.864 184.19 36.304 185.654 38.344L182.15 41.056C181.19 39.88 180.11 39.088 178.478 39.088C176.126 39.088 174.47 41.104 174.47 43.552V43.6C174.47 46.12 176.126 48.088 178.478 48.088C180.23 48.088 181.238 47.272 182.27 46.048L185.774 48.544C184.166 50.728 182.054 52.336 178.358 52.336ZM187.801 52V35.2H192.457V41.488H198.432V35.2H203.089V52H198.432V45.616H192.457V52H187.801ZM206.058 52V35.2H210.402L217.314 44.08V35.2H221.922V52H217.866L210.666 42.784V52H206.058ZM233.374 52.336C228.19 52.336 224.35 48.448 224.35 43.648V43.6C224.35 38.776 228.238 34.864 233.422 34.864C238.606 34.864 242.446 38.752 242.446 43.552V43.6C242.446 48.424 238.558 52.336 233.374 52.336ZM233.422 48.136C235.966 48.136 237.67 46.072 237.67 43.648V43.6C237.67 41.152 235.942 39.064 233.374 39.064C230.806 39.064 229.102 41.128 229.102 43.552V43.6C229.102 46 230.854 48.136 233.422 48.136ZM244.847 52V35.2H249.503V47.92H257.639V52H244.847ZM267.171 52.336C261.987 52.336 258.147 48.448 258.147 43.648V43.6C258.147 38.776 262.035 34.864 267.219 34.864C272.403 34.864 276.243 38.752 276.243 43.552V43.6C276.243 48.424 272.355 52.336 267.171 52.336ZM267.219 48.136C269.763 48.136 271.467 46.072 271.467 43.648V43.6C271.467 41.152 269.739 39.064 267.171 39.064C264.603 39.064 262.899 41.128 262.899 43.552V43.6C262.899 46 264.651 48.136 267.219 48.136ZM287.212 52.336C281.956 52.336 278.092 48.76 278.092 43.648V43.6C278.092 38.704 281.932 34.864 287.116 34.864C290.092 34.864 292.132 35.752 293.932 37.288L291.196 40.6C289.972 39.568 288.844 39.016 287.14 39.016C284.74 39.016 282.844 41.032 282.844 43.6V43.648C282.844 46.384 284.74 48.328 287.404 48.328C288.556 48.328 289.42 48.088 290.092 47.632V45.592H286.804V42.184H294.508V49.72C292.708 51.232 290.308 52.336 287.212 52.336ZM297.21 52V35.2H301.866V52H297.21ZM304.941 52V35.2H318.453V39.136H309.549V41.704H317.613V45.376H309.549V48.04H318.573V52H304.941ZM327.572 52.288C324.572 52.288 321.812 51.352 319.7 49.504L322.292 46.408C323.996 47.752 325.82 48.424 327.74 48.424C329.012 48.424 329.684 48.016 329.684 47.272V47.224C329.684 46.504 329.132 46.168 326.828 45.592C323.276 44.776 320.492 43.792 320.492 40.336V40.288C320.492 37.144 322.964 34.912 326.996 34.912C329.876 34.912 332.084 35.68 333.908 37.144L331.58 40.432C330.044 39.304 328.388 38.776 326.876 38.776C325.748 38.776 325.196 39.208 325.196 39.856V39.904C325.196 40.648 325.772 41.032 328.124 41.536C331.964 42.376 334.364 43.624 334.364 46.768V46.816C334.364 50.248 331.652 52.288 327.572 52.288Z" fill="#4F0933"/>
</svg>
